<svg width="282" height="143" viewBox="0 0 282 143" version="1.1" xmlns="http://www.w3.org/2000/svg" xmlns:xlink="http://www.w3.org/1999/xlink">
<g id="Canvas" fill="none">
<g id="Group 2">
<g id="Group">
<g id="Canvas_2">
<g id="Logo">
<g id="B">
<path id="Vector" d="M 1.02234e-07 142.188L 1.02234e-07 0L 49.8047 0C 67.0573 0 80.1432 3.3203 89.0627 9.9609C 97.9817 16.5365 102.442 26.2044 102.442 38.9648C 102.442 45.931 100.651 52.0833 97.0707 57.4215C 93.4897 62.6955 88.5087 66.5695 82.1289 69.0425C 89.4207 70.8655 95.1497 74.5445 99.3167 80.0785C 103.548 85.6115 105.664 92.3825 105.664 100.391C 105.664 114.062 101.302 124.414 92.5777 131.445C 83.8542 138.477 71.4193 142.057 55.2735 142.188L 1.02234e-07 142.188ZM 29.2969 80.2735L 29.2969 118.652L 54.3945 118.652C 61.2956 118.652 66.6667 117.024 70.5078 113.77C 74.4141 110.45 76.3672 105.892 76.3672 100.098C 76.3672 87.0765 69.6289 80.4685 56.1524 80.2735L 29.2969 80.2735ZM 29.2969 59.5705L 50.9766 59.5705C 65.7552 59.3095 73.1445 53.418 73.1445 41.8945C 73.1445 35.4492 71.2565 30.8268 67.4805 28.0273C 63.7695 25.1628 57.8776 23.7305 49.8047 23.7305L 29.2969 23.7305L 29.2969 59.5705Z" transform="translate(105.664 0) scale(-1 1)" fill="#4F4F4F"/>
</g>
<g id="P">
<path id="Vector_2" d="M 29.2969 92.0895L 29.2969 142.188L 1.02234e-07 142.188L 1.02234e-07 0L 55.4688 0C 66.1458 0 75.5208 1.9531 83.5938 5.8594C 91.7317 9.7656 97.9817 15.332 102.344 22.5586C 106.706 29.7201 108.887 37.8906 108.887 47.0703C 108.887 61.0025 104.102 72.0055 94.5317 80.0785C 85.0261 88.0855 71.8425 92.0895 54.9805 92.0895L 29.2969 92.0895ZM 29.2969 68.3595L 55.4688 68.3595C 63.2162 68.3595 69.1081 66.5365 73.1445 62.8905C 77.2461 59.2445 79.2969 54.0365 79.2969 47.2656C 79.2969 40.2995 77.2461 34.668 73.1445 30.3711C 69.043 26.0742 63.3789 23.8607 56.1524 23.7305L 29.2969 23.7305L 29.2969 68.3595Z" transform="translate(104.775 0)" fill="#2D9CDB"/>
</g>
<g id="Rectangle">
<path id="Vector_3" d="M 0 0L 142 0C 144.761 0 147 2.23858 147 5L 147 18C 147 20.7614 144.761 23 142 23L 0 23L 0 0Z" transform="translate(134.08 119.188)" fill="#4F4F4F"/>
</g>
</g>
</g>
</g>
</g>
</g>
</svg>
